# xmcd CD database file
#
# Track frame offsets:
#	150
#	22833
#	43774
#	66456
#	79510
#	100537
#	117654
#	140525
#
# Disc length: 2174 seconds
#
# Revision: 0
# Processed by: cddbd v1.5.1PL2 Copyright (c) Steve Scherf et al.
# Submitted via: CDex 1.60beta1
#
DISCID=65087c08
DTITLE=Sonic Revolution - exegesis
DYEAR=1900
DGENRE=テクノ (一般)
TTITLE0=Emotion Towards...
TTITLE1=蒼天 〜 Open the Door
TTITLE2=Titania Blue
TTITLE3=sole
TTITLE4=Complitence
TTITLE5=回帰 〜 Telescope
TTITLE6=schwarzes licht
TTITLE7=Emotion Towards... [no Vocal]
EXTD=
EXTT0=
EXTT1=
EXTT2=
EXTT3=
EXTT4=
EXTT5=
EXTT6=
EXTT7=
PLAYORDER=
